<svg xmlns="http://www.w3.org/2000/svg" viewBox="0 0 836.91 90.08"><defs><style>.cls-1{fill:#fff;}</style></defs><g id="Layer_2" data-name="Layer 2"><g id="Layer_1-2" data-name="Layer 1"><path class="cls-1" d="M40.8,48.31,53,55.91A29.9,29.9,0,0,1,30.12,66.69C13.47,66.69,0,52.83,0,35.9S13.47,5.2,30.12,5.2a30,30,0,0,1,22,9.72L40.42,23.1A13.46,13.46,0,0,0,30.12,19c-8.66,0-15.68,7.6-15.68,16.94s7,16.93,15.68,16.93C34.55,52.83,38,51.49,40.8,48.31Z"/><path class="cls-1" d="M82.37,22.13a16.08,16.08,0,0,1,9.15,3.08l-5.1,11.46a8.66,8.66,0,0,0-6.36-2.12c-7.5.77-8.37,8.28-8.37,12.41V65.63H57.83v-43H71.69V28.2C74,23.67,78.43,22.13,82.37,22.13Z"/><path class="cls-1" d="M141.17,22.62,120.86,76c-4.33,11.26-13.37,14-19,14H97.58V76.32l4.42.09c1.16,0,4.14-.58,6-5.39l2-5.29L93.44,22.62h14.82l9.14,23.77,9-23.77Z"/><path class="cls-1" d="M190.44,44.17c0,12.42-9.53,22.52-20.88,22.52-6.07,0-9.43-2.88-11.36-6.45V90.08H144.44V22.62H158.2V25a20.15,20.15,0,0,1,11.07-3.27C180.91,21.75,190.44,31.76,190.44,44.17Zm-14.53,0a9.5,9.5,0,0,0-9.34-9.72,9.28,9.28,0,0,0-8.18,5.1v9.34a9.45,9.45,0,0,0,8.18,5.1A9.58,9.58,0,0,0,175.91,44.17Z"/><path class="cls-1" d="M218.73,51.78h1.54V65.63h-4c-11.26,0-17.9-2.4-17.9-15.88V36.28h-5.49V22.62h5.49V17.13l13.86-10.2V22.62h12.7L219.4,36.28h-7.21v12C212.19,51.87,214.4,51.78,218.73,51.78Z"/><path class="cls-1" d="M270.89,44.08a22.52,22.52,0,1,1-22.52-22.52A22.56,22.56,0,0,1,270.89,44.08Zm-14.63,0c0-4.82-3.56-8.66-7.89-8.66s-7.89,3.84-7.89,8.66,3.56,8.66,7.89,8.66S256.26,48.89,256.26,44.08Z"/><path class="cls-1" d="M309.57,6.16h13.76v38.4c0,12.12-10.87,22-24.25,22s-24.15-9.92-24.15-22h13.76c0,4.52,4.71,8.18,10.39,8.18s10.49-3.66,10.49-8.18Z"/><path class="cls-1" d="M374.14,44.08a22.52,22.52,0,1,1-22.52-22.52A22.55,22.55,0,0,1,374.14,44.08Zm-14.63,0c0-4.82-3.56-8.66-7.89-8.66s-7.89,3.84-7.89,8.66,3.56,8.66,7.89,8.66S359.51,48.89,359.51,44.08Z"/><path class="cls-1" d="M426.11,44.17c0,12.42-9.53,22.52-21.27,22.52-5.78,0-9.15-2.88-11-6.45v5.39H380V10L393.87,0V24.93a20.47,20.47,0,0,1,11-3.18C416.58,21.75,426.11,31.76,426.11,44.17Zm-14.54,0a9.55,9.55,0,0,0-9.33-9.72,9.22,9.22,0,0,0-8.18,5v9.43a9.21,9.21,0,0,0,8.18,5A9.55,9.55,0,0,0,411.57,44.17Z"/><path class="cls-1" d="M467.48,52.55c0,6.64-3.56,14.14-19.92,14.14-7.22,0-15.11-3.17-18.57-6.45l6.45-9.81a18.14,18.14,0,0,0,11.74,4c2.88,0,6.44-.58,6.64-2.12s-3-2.88-6.55-3.56c-10.78-2.12-16.36-5.68-16.36-12.89,0-7.8,6.64-13.86,17.9-13.86,5.2,0,14,.58,18.19,4.71l-6.35,9.53c-2.6-2-5.58-2.5-8.66-2.5-1.73,0-6.74.19-6.74,2.12s5.68,2.79,6.93,3.08C466.52,42.83,467.48,49,467.48,52.55Z"/><path class="cls-1" d="M531.76,6.16h13.77V65.63H531.76V42.83h-20.4v22.8H497.5V6.16h13.86v22.9h20.4Z"/><path class="cls-1" d="M569,22.62V44.46c0,4.14.2,9.34,5,9.34,2.79,0,4.81-1.74,7.12-4.24V22.71h13.76V65.63H581.13V60.34c-2.79,4.24-5.68,6.16-11.36,6.16-13.57,0-14.63-11.45-14.63-20.11V22.62Z"/><path class="cls-1" d="M627.9,21.75c13.56,0,14.62,11.45,14.62,20.11V65.63H628.67V46.48c0-3.85,1-12-4.82-12-3,0-4.9,1.74-7.31,4.33V65.63H602.78v-43h13.76v5.29C619.33,23.67,622.31,21.75,627.9,21.75Z"/><path class="cls-1" d="M680.44,22.71H694.2V65.92c0,14.44-10.3,24.16-23.2,24.16-10.29,0-17.12-4.91-20.4-10.78l10.78-8.37a10.57,10.57,0,0,0,9.14,5.39c6.07,0,9.92-3.76,9.92-9.53V60.24c-1.93,3.57-5.3,6.45-11.36,6.45-11.45,0-21-10.1-21-22.52s9.53-22.42,21.27-22.42a21.13,21.13,0,0,1,11.07,3.18Zm-.2,16.75a9.46,9.46,0,0,0-8.18-5,9.72,9.72,0,0,0,0,19.44,9.45,9.45,0,0,0,8.18-5Z"/><path class="cls-1" d="M732,22.71h13.86V65.63H732V63.42a19.79,19.79,0,0,1-11,3.27c-11.74,0-21.26-10.1-21.26-22.52S709.3,21.75,721,21.75A19.79,19.79,0,0,1,732,25Zm-.09,16.84a9.4,9.4,0,0,0-8.28-5.1,9.77,9.77,0,1,0,8.28,14.44Z"/><path class="cls-1" d="M778.11,22.13a16.05,16.05,0,0,1,9.14,3.08l-5.1,11.46a8.64,8.64,0,0,0-6.35-2.12c-7.51.77-8.37,8.28-8.37,12.41V65.63H753.57v-43h13.86V28.2C769.74,23.67,774.16,22.13,778.11,22.13Z"/><path class="cls-1" d="M836.91,22.62,816.6,76c-4.33,11.26-13.38,14-19,14h-4.33V76.32l4.43.09c1.15,0,4.14-.58,6-5.39l2-5.29L789.17,22.62H804l9.14,23.77,9-23.77Z"/></g></g></svg>